<svg xmlns="http://www.w3.org/2000/svg" viewBox="0 0 200 200">
  <!-- pernas -->
  <rect x="72" y="145" width="15" height="34" rx="7.5" fill="#d9c7a3"/>
  <rect x="113" y="145" width="15" height="34" rx="7.5" fill="#d9c7a3"/>
  <!-- lã (nuvem) -->
  <g fill="#fdfaf2">
    <circle cx="100" cy="60" r="26"/>
    <circle cx="68" cy="72" r="24"/>
    <circle cx="132" cy="72" r="24"/>
    <circle cx="52" cy="100" r="24"/>
    <circle cx="148" cy="100" r="24"/>
    <circle cx="64" cy="128" r="24"/>
    <circle cx="136" cy="128" r="24"/>
    <circle cx="96" cy="138" r="26"/>
    <circle cx="100" cy="100" r="44"/>
  </g>
  <!-- orelhas -->
  <ellipse cx="58" cy="96" rx="15" ry="9" fill="#f2dfc4" transform="rotate(-22 58 96)"/>
  <ellipse cx="142" cy="96" rx="15" ry="9" fill="#f2dfc4" transform="rotate(22 142 96)"/>
  <!-- rosto -->
  <ellipse cx="100" cy="100" rx="33" ry="29" fill="#f2dfc4"/>
  <!-- topete de lã -->
  <circle cx="85" cy="74" r="11" fill="#fdfaf2"/>
  <circle cx="100" cy="70" r="12" fill="#fdfaf2"/>
  <circle cx="115" cy="74" r="11" fill="#fdfaf2"/>
  <!-- olhos -->
  <circle cx="88" cy="97" r="3.6" fill="#4a3a2a"/>
  <circle cx="112" cy="97" r="3.6" fill="#4a3a2a"/>
  <!-- sorriso -->
  <path d="M93 106 Q100 112 107 106" fill="none" stroke="#4a3a2a" stroke-width="2.6" stroke-linecap="round"/>
  <!-- bochechas -->
  <circle cx="76" cy="105" r="6.5" fill="#f5b8ad" opacity="0.65"/>
  <circle cx="124" cy="105" r="6.5" fill="#f5b8ad" opacity="0.65"/>
</svg>
