<svg xmlns="http://www.w3.org/2000/svg" viewBox="0 0 200 200">
  <!-- pernas -->
  <rect x="66" y="148" width="16" height="32" rx="8" fill="#e3cba2"/>
  <rect x="118" y="148" width="16" height="32" rx="8" fill="#e3cba2"/>
  <!-- corpo -->
  <rect x="45" y="88" width="110" height="78" rx="36" fill="#fdf6e8"/>
  <ellipse cx="68" cy="140" rx="17" ry="13" fill="#b98b5e" transform="rotate(-15 68 140)"/>
  <ellipse cx="136" cy="128" rx="14" ry="11" fill="#b98b5e" transform="rotate(20 136 128)"/>
  <!-- chifres -->
  <ellipse cx="68" cy="42" rx="8" ry="10" fill="#e3cba2" transform="rotate(-25 68 42)"/>
  <ellipse cx="132" cy="42" rx="8" ry="10" fill="#e3cba2" transform="rotate(25 132 42)"/>
  <!-- orelhas -->
  <ellipse cx="50" cy="68" rx="14" ry="9" fill="#e3cba2" transform="rotate(-28 50 68)"/>
  <ellipse cx="150" cy="68" rx="14" ry="9" fill="#e3cba2" transform="rotate(28 150 68)"/>
  <!-- cabeça -->
  <ellipse cx="100" cy="76" rx="44" ry="38" fill="#fdf6e8"/>
  <!-- mancha na cabeça -->
  <path d="M70 48 Q86 40 94 52 Q92 66 76 66 Q62 62 70 48 Z" fill="#b98b5e"/>
  <!-- olhos -->
  <circle cx="84" cy="72" r="4" fill="#4a3a2a"/>
  <circle cx="116" cy="72" r="4" fill="#4a3a2a"/>
  <!-- focinho -->
  <ellipse cx="100" cy="95" rx="23" ry="14" fill="#f2cdb9"/>
  <ellipse cx="92" cy="95" rx="2.8" ry="3.6" fill="#c98d76"/>
  <ellipse cx="108" cy="95" rx="2.8" ry="3.6" fill="#c98d76"/>
  <!-- bochechas -->
  <circle cx="66" cy="86" r="6.5" fill="#f5b8ad" opacity="0.65"/>
  <circle cx="134" cy="86" r="6.5" fill="#f5b8ad" opacity="0.65"/>
</svg>
